<?xml version="1.0" encoding="UTF-8" standalone="no"?>
<!-- Created with Inkscape (http://www.inkscape.org/) -->

<svg
   width="31.019768mm"
   height="31.019768mm"
   viewBox="0 -4.00051 31.01977 31.01977"
   version="1.1"
   id="svg1"
   xmlns="http://www.w3.org/2000/svg"
   xmlns:svg="http://www.w3.org/2000/svg">
  <defs
     id="defs1" />
  <g
     id="layer1"
     style="display:inline"
     transform="translate(-110.13535,-92.017072)">
    <g
       id="text4"
       style="font-size:35.2778px;line-height:0;font-family:'Nimbus Mono PS';-inkscape-font-specification:'Nimbus Mono PS';white-space:pre;inline-size:154.617;fill:#595959;stroke-width:0.264583"
       transform="translate(25.703414,-18.142915)"
       aria-label="{ }">
      <path
         id="path1"
         style="font-size:31.75px"
         d="M 90.401081 110.15999 C 88.559582 110.15999 87.098957 111.68401 87.098957 113.62076 L 87.098957 118.98632 C 87.098957 120.06582 86.400559 120.76457 85.35281 120.82807 C 84.717809 120.89157 84.431936 121.14563 84.431936 121.68538 C 84.431936 122.19338 84.717809 122.44715 85.35281 122.51065 C 86.400559 122.57415 87.098957 123.2729 87.098957 124.3524 L 87.098957 129.71797 C 87.098957 131.65472 88.559582 133.17874 90.401081 133.17874 C 90.972581 133.17874 91.321438 132.86124 91.321438 132.38499 C 91.321438 131.84524 91.06777 131.65496 90.337519 131.55971 C 89.35327 131.40096 88.750019 130.73397 88.750019 129.71797 L 88.750019 124.3524 C 88.750019 123.0824 88.369038 122.35213 87.448289 121.68538 C 88.369038 121.01863 88.750019 120.25632 88.750019 118.98632 L 88.750019 113.62076 C 88.750019 112.60476 89.35327 111.90601 90.337519 111.77901 C 91.06777 111.68371 91.321438 111.49349 91.321438 110.95374 C 91.321438 110.47749 90.972581 110.15999 90.401081 110.15999 z M 109.4826 110.15999 C 108.9111 110.15999 108.56173 110.47749 108.56173 110.95374 C 108.56173 111.49349 108.81592 111.68376 109.54617 111.77901 C 110.53042 111.90601 111.13367 112.60476 111.13367 113.62076 L 111.13367 118.98632 C 111.13367 120.25632 111.51464 120.98659 112.43539 121.65334 C 111.51464 122.32009 111.13367 123.0824 111.13367 124.3524 L 111.13367 129.71797 C 111.13367 130.73397 110.53042 131.43271 109.54617 131.55971 C 108.81592 131.65491 108.56173 131.84524 108.56173 132.38499 C 108.56173 132.86124 108.9111 133.17874 109.4826 133.17874 C 111.3241 133.17874 112.78473 131.65472 112.78473 129.71797 L 112.78473 124.3524 C 112.78473 123.2729 113.48312 122.54263 114.53087 122.47913 C 115.16587 122.44733 115.45175 122.19309 115.45175 121.65334 C 115.45175 121.14534 115.16587 120.89157 114.53087 120.82807 C 113.48312 120.76457 112.78473 120.03407 112.78473 118.98632 L 112.78473 113.62076 C 112.78473 111.68401 111.3241 110.15999 109.4826 110.15999 z " />
    </g>
    <path
       style="font-weight:800;font-size:21.1667px;font-family:Lexend;-inkscape-font-specification:'Lexend Ultra-Bold';white-space:pre;inline-size:122.156;fill:#0b5394;stroke-width:0.264583"
       d="m 40.730811,68.949651 c -1.157113,0 -2.222504,-0.1905 -3.196172,-0.571501 -0.973668,-0.381001 -1.820336,-0.910168 -2.540004,-1.587503 -0.705557,-0.691445 -1.255891,-1.502835 -1.651003,-2.43417 -0.381,-0.945446 -0.5715,-1.982614 -0.5715,-3.111505 0,-1.11478 0.197556,-2.137837 0.592667,-3.069172 0.409223,-0.945446 0.973669,-1.763892 1.693336,-2.455337 0.719668,-0.691445 1.573392,-1.227668 2.561171,-1.608669 0.987779,-0.381001 2.067281,-0.571501 3.238505,-0.571501 0.705557,0 1.389947,0.09172 2.05317,0.275167 0.677335,0.169333 1.312336,0.423334 1.905003,0.762001 0.592668,0.338667 1.121836,0.762001 1.587503,1.270002 l -2.518838,2.921005 C 43.64476,58.500357 43.376648,58.260467 43.080315,58.0488 c -0.296334,-0.211667 -0.635001,-0.373945 -1.016002,-0.486834 -0.366889,-0.127 -0.776112,-0.1905 -1.227669,-0.1905 -0.522111,0 -1.016001,0.09172 -1.481669,0.275167 -0.451556,0.169333 -0.846668,0.423334 -1.185335,0.762001 -0.338667,0.338667 -0.606779,0.74789 -0.804334,1.227669 -0.183445,0.479778 -0.275168,1.030112 -0.275168,1.651002 0,0.592668 0.09172,1.128891 0.275168,1.608669 0.197555,0.465668 0.472722,0.867835 0.825501,1.206502 0.366889,0.324556 0.797279,0.578557 1.291169,0.762002 0.508001,0.183445 1.072446,0.275167 1.693336,0.275167 0.437445,0 0.846667,-0.0635 1.227668,-0.190501 0.395112,-0.127 0.754946,-0.296333 1.079502,-0.508 0.324556,-0.211667 0.613834,-0.444501 0.867835,-0.698502 l 1.98967,3.153839 c -0.352779,0.395111 -0.832557,0.74789 -1.439336,1.058335 -0.592668,0.310445 -1.255891,0.557389 -1.98967,0.740834 -0.719668,0.169334 -1.446391,0.254001 -2.18017,0.254001 z"
       id="text1"
       transform="translate(85.469302,42.424338)"
       aria-label="C" />
  </g>
</svg>
